# xmcd
#
# Track frame offsets: 
#        150
#        14315
#        44282
#        66946
#        83048
#        115040
#        146369
#        160478
#
# Disc length: 4280 seconds
#
# Revision: 0
# Processed by: cddbd v1.5.2PL0 Copyright (c) Steve Scherf et al.
# Submitted via: ExactAudioCopy v1.0b4
#
DISCID=6110b608
DTITLE=Eric Clapton - Blues Power (LP)
DYEAR=1900
DGENRE=Blues
TTITLE0=After Midnight
TTITLE1=Tell The Truth
TTITLE2=Bell Bottom Blues
TTITLE3=Slunky
TTITLE4=Layla
TTITLE5=Have You Ever Loved A Woman
TTITLE6=Blues Power
TTITLE7=Blues Power (LP)
EXTD=
EXTT0=
EXTT1=
EXTT2=
EXTT3=
EXTT4=
EXTT5=
EXTT6=
EXTT7=
PLAYORDER=
